<mxfile host="app.diagrams.net" modified="2022-10-10T09:14:54.582Z" agent="5.0 (Windows NT 6.1; WOW64) AppleWebKit/537.36 (KHTML, like Gecko) Chrome/86.0.4240.198 Safari/537.36" etag="9LVDkulNWJj6sySruH7A" version="20.4.0" type="github">
  <diagram id="6QDKSPnrTSgEelVW4R3N" name="第 1 页">
    <mxGraphModel dx="1497" dy="1948" grid="1" gridSize="10" guides="1" tooltips="1" connect="1" arrows="1" fold="1" page="1" pageScale="1" pageWidth="827" pageHeight="1169" math="0" shadow="0">
      <root>
        <mxCell id="0" />
        <mxCell id="1" parent="0" />
        <mxCell id="wRb3nrnMmlGAktsx-6lQ-2" value="" style="group" vertex="1" connectable="0" parent="1">
          <mxGeometry x="520" y="-10" width="660" height="380" as="geometry" />
        </mxCell>
        <mxCell id="DnedYTSctudwAIyVeCfP-8" value="" style="rounded=0;whiteSpace=wrap;html=1;fillStyle=hatch;strokeColor=#1A1A1A;fillColor=none;gradientColor=none;" parent="wRb3nrnMmlGAktsx-6lQ-2" vertex="1">
          <mxGeometry x="10" y="10" width="640" height="360" as="geometry" />
        </mxCell>
        <mxCell id="wRb3nrnMmlGAktsx-6lQ-1" value="" style="rounded=0;whiteSpace=wrap;html=1;fillColor=none;" vertex="1" parent="wRb3nrnMmlGAktsx-6lQ-2">
          <mxGeometry width="660" height="380" as="geometry" />
        </mxCell>
        <mxCell id="DnedYTSctudwAIyVeCfP-10" value="" style="rounded=0;whiteSpace=wrap;html=1;fillStyle=hatch;strokeColor=#1A1A1A;fillColor=#000000;gradientColor=none;" parent="wRb3nrnMmlGAktsx-6lQ-2" vertex="1">
          <mxGeometry x="228.75" y="10" width="202.5" height="360" as="geometry" />
        </mxCell>
        <mxCell id="DnedYTSctudwAIyVeCfP-3" value="" style="group" parent="1" vertex="1" connectable="0">
          <mxGeometry x="61" y="20" width="180" height="320" as="geometry" />
        </mxCell>
        <mxCell id="DnedYTSctudwAIyVeCfP-1" value="" style="rounded=0;whiteSpace=wrap;html=1;" parent="DnedYTSctudwAIyVeCfP-3" vertex="1">
          <mxGeometry width="180" height="320" as="geometry" />
        </mxCell>
        <mxCell id="DnedYTSctudwAIyVeCfP-2" value="" style="rounded=0;whiteSpace=wrap;html=1;fillColor=#000000;fillStyle=hatch;gradientColor=none;strokeColor=#1A1A1A;" parent="DnedYTSctudwAIyVeCfP-3" vertex="1">
          <mxGeometry x="7.5" y="7.5" width="165" height="305" as="geometry" />
        </mxCell>
        <mxCell id="DnedYTSctudwAIyVeCfP-7" value="" style="endArrow=block;html=1;rounded=0;strokeWidth=2;endFill=1;" parent="1" edge="1">
          <mxGeometry width="50" height="50" relative="1" as="geometry">
            <mxPoint x="260" y="179.5" as="sourcePoint" />
            <mxPoint x="500" y="179.5" as="targetPoint" />
          </mxGeometry>
        </mxCell>
        <mxCell id="DnedYTSctudwAIyVeCfP-11" value="" style="endArrow=classic;startArrow=classic;html=1;rounded=0;strokeWidth=2;" parent="1" edge="1">
          <mxGeometry width="50" height="50" relative="1" as="geometry">
            <mxPoint x="530" y="388" as="sourcePoint" />
            <mxPoint x="1170" y="388" as="targetPoint" />
          </mxGeometry>
        </mxCell>
        <mxCell id="DnedYTSctudwAIyVeCfP-12" value="" style="endArrow=classic;startArrow=classic;html=1;rounded=0;strokeWidth=2;" parent="1" edge="1">
          <mxGeometry width="50" height="50" relative="1" as="geometry">
            <mxPoint x="1204" y="360" as="sourcePoint" />
            <mxPoint x="1204" as="targetPoint" />
          </mxGeometry>
        </mxCell>
        <mxCell id="DnedYTSctudwAIyVeCfP-13" value="W" style="text;html=1;resizable=0;autosize=1;align=center;verticalAlign=middle;points=[];fillColor=none;strokeColor=none;rounded=0;fillStyle=hatch;fontStyle=1;fontSize=16;" parent="1" vertex="1">
          <mxGeometry x="830" y="394" width="40" height="30" as="geometry" />
        </mxCell>
        <mxCell id="DnedYTSctudwAIyVeCfP-14" value="H" style="text;html=1;resizable=0;autosize=1;align=center;verticalAlign=middle;points=[];fillColor=none;strokeColor=none;rounded=0;fillStyle=hatch;fontStyle=1;fontSize=16;" parent="1" vertex="1">
          <mxGeometry x="1213" y="165" width="40" height="30" as="geometry" />
        </mxCell>
      </root>
    </mxGraphModel>
  </diagram>
</mxfile>
